{"title":"Ghost Rider: Spirit of Vengeance - 2011 (No Cinavia) 1080p AAC","uid":11098126,"size":1506360795,"categoryP":"video","categoryS":"hd___movies","magnet":"?xt=urn:btih:ea4a90c081ed1ba67e96f8b7feb5d2e13038941f&amp;dn=Ghost+Rider%3A+Spirit+of+Vengeance+-+2011+%28No+Cinavia%29+1080p+AAC&amp;tr=udp%3A%2F%2Ftracker.openbittorrent.com%3A80&amp;tr=udp%3A%2F%2Fopen.demonii.com%3A1337&amp;tr=udp%3A%2F%2Ftracker.coppersurfer.tk%3A6969&amp;tr=udp%3A%2F%2Fexodus.desync.com%3A6969","seeders":0,"leechers":1,"uploader":"AlienMethod","files":-1,"time":1411623525,"description":"1080p MP4/x264\nAAC2.0 (2-Channel Audio)\nCinavia Removed/CinEx HD (ps3-Friendly)\n(Processed from Yify Encode)\n\n&quot;As Johnny Blaze hides out in Eastern Europe, he is called upon to stop the devil, who is trying to take human form.&quot;\n\nVideo\nID : 1\nFormat : AVC\nFormat/Info : Advanced Video Codec\nFormat profile : &lt;a class=&quot;__cf_email__&quot; href=&quot;/cdn-cgi/l/email-protection&quot; data-cfemail=&quot;0941606e6149453d2739&quot;&gt;[email&amp;#160;protected]&lt;/a&gt;&lt;script data-cfhash='f9e31' type=&quot;text/javascript&quot;&gt;\n/* &lt;![CDATA[ */!function(){try{var t=&quot;currentScript&quot;in document?document.currentScript:function(){for(var t=document.getElementsByTagName(&quot;script&quot;),e=t.length;e--;)if(t[e].getAttribute(&quot;data-cfhash&quot;))return t[e]}();if(t&amp;&amp;t.previousSibling){var e,r,n,i,c=t.previousSibling,a=c.getAttribute(&quot;data-cfemail&quot;);if(a){for(e=&quot;&quot;,r=parseInt(a.substr(0,2),16),n=2;a.length-n;n+=2)i=parseInt(a.substr(n,2),16)^r,e+=String.fromCharCode(i);e=document.createTextNode(e),c.parentNode.replaceChild(e,c)}t.parentNode.removeChild(t);}}catch(u){}}()/* ]]&gt; */&lt;/script&gt;\nFormat settings, CABAC : Yes\nFormat settings, ReFrames : 5 frames\nCodec ID : avc1\nCodec ID/Info : Advanced Video Coding\nDuration : 1h 35mn\nBit rate : 2 004 Kbps\nWidth : 1 920 pixels\nHeight : 800 pixels\nDisplay aspect ratio : 2.40:1\nFrame rate mode : Constant\nFrame rate : 23.976 fps\nColor space : YUV\nChroma subsampling : 4:2:0\nBit depth : 8 bits\nScan type : Progressive\nBits/(Pixel*Frame) : 0.054\nStream size : 1.34 GiB (95%)\nWriting library : x264 core 120 r2164 da19765\n\nAudio\nID : 2\nFormat : AAC\nFormat/Info : Advanced Audio Codec\nFormat profile : LC\nCodec ID : 40\nDuration : 1h 35mn\nBit rate mode : Variable\nBit rate : 93.8 Kbps\nMaximum bit rate : 376 Kbps\nChannel(s) : 2 channels\nChannel positions : Front: L R\nSampling rate : 44.1 KHz\nCompression mode : Lossy\nStream size : 64.1 MiB (4%)\n\nm/ AM m/ \n","torrent":{"xt":"urn:btih:ea4a90c081ed1ba67e96f8b7feb5d2e13038941f","amp;dn":"Ghost+Rider%3A+Spirit+of+Vengeance+-+2011+%28No+Cinavia%29+1080p+AAC","amp;tr":["udp%3A%2F%2Ftracker.openbittorrent.com%3A80","udp%3A%2F%2Fopen.demonii.com%3A1337","udp%3A%2F%2Ftracker.coppersurfer.tk%3A6969","udp%3A%2F%2Fexodus.desync.com%3A6969"],"infoHash":"ea4a90c081ed1ba67e96f8b7feb5d2e13038941f","infoHashBuffer":{"type":"Buffer","data":[234,74,144,192,129,237,27,166,126,150,248,183,254,181,210,225,48,56,148,31]},"announce":[],"urlList":[]}}